<svg width="3299" height="705" viewBox="0 0 3299 705" fill="none" xmlns="http://www.w3.org/2000/svg">
<g clip-path="url(#clip0_163_1215)">
<rect width="718" height="705" rx="352.5" fill="#6297C7"/>
<path d="M188.744 580.689C218.11 564.316 266.946 564.882 287.693 567.212L254.219 695L129.693 664.051C137.141 643.086 159.378 597.062 188.744 580.689Z" fill="white"/>
<path d="M441.679 247.712C424.021 251.207 403.809 244.891 395.91 241.296C394.734 240.784 395.02 239.816 395.31 239.397C406.816 234.087 422.935 190.446 432.054 191.218C442.475 192.1 445.449 236.249 441.679 247.712Z" fill="#706464"/>
<path d="M260.02 283.064L250.413 253.281C218.405 245.339 181.422 199.484 230.237 155.989C218.662 115.481 282.595 68.0454 339.506 120.743C373.248 97.875 445.013 147.167 402.673 204.167L410.961 229.862C387.469 252.959 319.079 280.572 260.02 283.064Z" fill="white"/>
<path d="M250.413 253.281L260.02 283.064C319.079 280.572 387.469 252.959 410.961 229.862L402.673 204.167M250.413 253.281C277.432 235.54 345.71 200.879 402.673 204.167M250.413 253.281C218.405 245.339 181.422 199.484 230.237 155.989C218.662 115.481 282.595 68.0454 339.506 120.743C373.248 97.875 445.013 147.167 402.673 204.167" stroke="#6297C7" stroke-width="8"/>
<path d="M507.828 311.747L445.69 239.626C511.337 240.262 551.653 276.212 563.605 294.107C546.913 318.265 519.465 315.933 507.828 311.747Z" fill="#706464"/>
<path d="M556.003 294.939C553.171 309.422 512.785 312.689 501.15 303.895C497.356 303.836 493.006 291.962 491.306 286.032C520.333 282.306 557.204 288.79 556.003 294.939Z" fill="#EDD3D3"/>
<path d="M271.693 613.5C284.412 547.194 329.43 522.557 364.193 524L501.193 509C573.942 621.325 556.837 694.135 526.525 723H253.716C248.416 716.609 258.975 679.806 271.693 613.5Z" fill="white"/>
<path d="M299.193 550.5C303.693 581.5 450.893 622.7 511.693 525.5L299.193 550.5Z" fill="#D9D9D9"/>
<path d="M285.693 572.5C290.939 563.133 287.708 563 299.071 559.688C391.95 588.299 508.366 525.538 512.693 529C515.193 531 515.693 532 517.693 536.5C493.979 562.601 461.444 617.078 449.258 640C404.795 607.373 278.693 585 285.693 572.5Z" fill="#ECECEC"/>
<path d="M287.718 565.249C288.619 557.113 287.718 553 299.081 549.688C391.96 578.299 507.07 518.567 512.011 521.077C515.963 523.085 515.963 526.933 515.469 528.606C491.755 554.708 461.454 607.078 449.268 630C404.805 597.373 286.193 579 287.718 565.249Z" fill="#BE5E6F"/>
<mask id="mask0_163_1215" style="mask-type:alpha" maskUnits="userSpaceOnUse" x="225" y="226" width="338" height="346">
<path d="M239.276 407.739L239.296 407.785L239.324 407.826C247.712 420.005 260.9 441.3 269.623 468.886C270.523 471.73 271.011 476.1 271.539 481.53C271.599 482.15 271.66 482.783 271.722 483.429C272.201 488.413 272.75 494.134 273.691 500.203C275.817 513.91 279.948 529.453 289.836 542.445C309.665 568.5 352.383 584.014 447.298 554.811C508.552 535.965 537.469 509.622 550.884 485.727C563.878 462.58 562.276 441.814 561.566 432.614C561.544 432.318 561.522 432.035 561.501 431.763C560.178 414.202 545.328 390.535 519.496 376.612C519.327 344.696 510.181 299.459 483.22 267.139C469.69 250.918 451.673 237.953 428.066 231.568C404.463 225.184 375.306 225.389 339.505 235.45C318.003 241.493 290.126 255.777 267.701 272.619C256.487 281.041 246.617 290.117 239.586 299.14C232.569 308.145 228.332 317.157 228.486 325.451C228.435 326.151 228.247 327.184 227.984 328.591C227.968 328.674 227.952 328.758 227.936 328.844C227.68 330.207 227.368 331.875 227.064 333.841C226.418 338.022 225.814 343.553 225.879 350.429C226.008 364.182 228.811 383.292 239.276 407.739Z" fill="#ECECEC" stroke="black"/>
</mask>
<g mask="url(#mask0_163_1215)">
<rect x="118.915" y="305.735" width="403" height="345" transform="rotate(-17.5493 118.915 305.735)" fill="white"/>
<path d="M424.868 422.521C392.997 522.697 306.779 503.465 265.279 465.097C223.778 426.73 160.154 341.95 183.464 297.594C206.775 253.238 338.22 225.914 367.539 221.34C349.46 346.579 448.801 347.298 424.868 422.521Z" fill="#706464"/>
<path d="M450.604 497.111C420.265 507.189 402.374 505.607 391.462 484.368C425.913 475.571 468.028 461.161 490.345 450.475C496.001 473.334 480.944 487.032 450.604 497.111Z" fill="#AF9696"/>
<path d="M494.319 431.535C501.146 453.125 477.366 469.263 444.975 479.507C425.133 485.781 406.314 488.499 393.14 484.701C384.809 482.298 378.735 477.289 376.09 468.925C365.9 436.704 387.859 411.567 420.25 401.323C452.641 391.08 485.08 402.322 494.319 431.535Z" fill="#FFF2F2"/>
<ellipse cx="407.255" cy="444.763" rx="4" ry="5.5" transform="rotate(-17.5493 407.255 444.763)" fill="#B5A2A2"/>
<ellipse cx="454.928" cy="429.687" rx="4" ry="5.5" transform="rotate(-17.5493 454.928 429.687)" fill="#B5A2A2"/>
</g>
<path d="M175.306 454.202C157.49 395.06 207.746 335.809 236.355 315.791L263.345 397.629C226.478 449.408 177.164 460.368 175.306 454.202Z" fill="#706464"/>
<path d="M180.104 449.475C171.68 442.737 236.117 379.144 258.764 363.243C263.913 359.628 262.702 387.694 253 401.398C223.85 442.576 183.614 452.282 180.104 449.475Z" fill="#EDD3D3"/>
<ellipse cx="354.094" cy="415.952" rx="12" ry="18" transform="rotate(-17.5493 354.094 415.952)" fill="#3A2727"/>
<ellipse cx="477.09" cy="377.055" rx="12" ry="18" transform="rotate(-17.5493 477.09 377.055)" fill="#3A2727"/>
<path d="M214.065 258.25C196.331 283.472 215.927 313.354 227.941 325.142C236.219 330.576 281.414 299.106 278.66 293.498C274.368 284.76 218.287 252.245 214.065 258.25Z" fill="#706464"/>
<path d="M261.406 283.646L254.906 255.646C298.906 220.446 370.24 208.98 400.406 207.646L406.906 228.646C386.489 270.582 304.492 291.027 261.406 283.646Z" fill="white"/>
</g>
<path d="M862.9 400C862.9 360.4 892.6 331.15 946.15 331.15C968.2 331.15 990.7 337.9 990.7 337.9C991.15 299.65 972.7 280.75 943 280.75C920.05 280.75 904.3 289.75 894.85 292.9C889.45 295.15 886.75 292.45 884.95 287.5L880.45 275.35C878.65 269.05 881.8 266.35 886.75 264.1C897.1 259.6 916 250.6 944.8 250.6C997.9 250.6 1022.65 282.1 1022.65 337.9V456.7C1022.65 461.65 1019.5 464.8 1014.55 464.8C1001.05 464.8 993.85 454.45 992.5 440.5C981.7 451.75 959.65 467.95 927.25 467.95C890.8 467.95 862.9 441.85 862.9 400ZM895.75 400C895.75 421.15 910.15 437.8 933.1 437.8C958.75 437.8 981.25 423.4 990.25 409.9V367.6C983.5 364 966.85 359.5 946.15 359.5C917.35 359.5 895.75 373.45 895.75 400ZM1266.87 261.4V464.35C1266.87 535.45 1223.22 561.55 1175.97 561.55C1143.12 561.55 1114.32 544.45 1103.52 534.55C1099.92 531.4 1099.02 525.55 1101.27 522.4L1110.27 509.35C1113.42 504.4 1118.82 504.4 1123.77 508.9C1135.02 518.35 1153.02 530.95 1175.97 530.95C1208.82 530.95 1234.02 512.95 1234.02 464.35V449.5C1234.02 449.5 1210.62 467.95 1176.42 467.95C1119.27 467.95 1077.87 419.8 1077.87 359.05C1077.87 299.65 1118.37 250.6 1175.07 250.6C1202.07 250.6 1225.02 262.3 1237.62 272.2C1240.32 260.95 1247.07 253.3 1258.77 253.3C1263.72 253.3 1266.87 256.45 1266.87 261.4ZM1111.62 358.6C1111.62 403.6 1141.32 437.35 1180.92 437.35C1209.72 437.35 1233.57 420.25 1233.57 420.25V306.4C1233.57 306.4 1212.42 281.2 1178.67 281.2C1137.27 281.2 1111.62 318.1 1111.62 358.6ZM1512.96 261.4V464.35C1512.96 535.45 1469.31 561.55 1422.06 561.55C1389.21 561.55 1360.41 544.45 1349.61 534.55C1346.01 531.4 1345.11 525.55 1347.36 522.4L1356.36 509.35C1359.51 504.4 1364.91 504.4 1369.86 508.9C1381.11 518.35 1399.11 530.95 1422.06 530.95C1454.91 530.95 1480.11 512.95 1480.11 464.35V449.5C1480.11 449.5 1456.71 467.95 1422.51 467.95C1365.36 467.95 1323.96 419.8 1323.96 359.05C1323.96 299.65 1364.46 250.6 1421.16 250.6C1448.16 250.6 1471.11 262.3 1483.71 272.2C1486.41 260.95 1493.16 253.3 1504.86 253.3C1509.81 253.3 1512.96 256.45 1512.96 261.4ZM1357.71 358.6C1357.71 403.6 1387.41 437.35 1427.01 437.35C1455.81 437.35 1479.66 420.25 1479.66 420.25V306.4C1479.66 306.4 1458.51 281.2 1424.76 281.2C1383.36 281.2 1357.71 318.1 1357.71 358.6ZM1583.1 453.1V265C1583.1 260.05 1587.6 255.1 1593 255.1H1606.5C1611.45 255.1 1616.4 260.05 1616.4 265V453.1C1616.4 458.5 1611.45 463 1606.5 463H1593C1587.6 463 1583.1 458.5 1583.1 453.1ZM1598.85 201.55C1585.35 201.55 1574.55 190.3 1574.55 177.25C1574.55 162.85 1585.35 152.05 1598.85 152.05C1612.8 152.05 1623.6 162.85 1623.6 177.25C1623.6 190.3 1612.8 201.55 1598.85 201.55ZM1673.76 359.05C1673.76 300.55 1711.56 250.6 1774.56 250.6C1829.01 250.6 1868.61 290.65 1868.61 345.1C1868.61 348.7 1868.16 354.1 1867.71 357.7C1867.26 363.1 1862.76 366.7 1858.26 366.7H1707.06C1707.96 401.35 1737.21 437.8 1775.01 437.8C1802.46 437.8 1819.56 428.35 1831.26 420.7C1838.46 415.75 1841.61 413.95 1847.01 422.05L1852.41 429.7C1856.46 436 1858.26 438.25 1850.61 444.1C1838.01 454 1810.56 467.95 1774.56 467.95C1711.56 467.95 1673.76 418.45 1673.76 359.05ZM1707.51 340.15H1835.31C1834.41 309.55 1810.11 280.75 1774.56 280.75C1739.46 280.75 1711.56 307.75 1707.51 340.15ZM1916.94 453.1V262.75C1916.94 257.8 1920.54 253.3 1927.74 253.3C1946.19 253.3 1956.99 264.55 1960.14 279.4C1969.14 269.05 1987.59 250.6 2022.69 250.6C2052.84 250.6 2067.69 261.4 2084.79 282.1C2093.79 272.65 2114.49 250.6 2151.84 250.6C2218.44 250.6 2234.19 292.9 2234.19 346.9V453.1C2234.19 458.5 2229.69 463 2223.84 463H2187.84C2182.44 463 2177.94 458.5 2177.94 453.1V345.55C2177.94 318.55 2168.04 301.9 2141.94 301.9C2111.79 301.9 2103.24 323.5 2103.24 323.5C2103.24 323.5 2104.14 333.85 2104.14 343.3V453.1C2104.14 458.5 2099.19 463 2094.24 463H2057.34C2051.49 463 2047.44 458.5 2047.44 453.1V345.55C2047.44 318.55 2039.79 301.9 2013.24 301.9C1987.59 301.9 1978.14 319.9 1973.19 334.3V453.1C1973.19 458.5 1968.24 463 1963.29 463H1926.84C1921.89 463 1916.94 458.5 1916.94 453.1ZM2277 359.05C2277 300.55 2320.2 250.6 2381.85 250.6C2435.85 250.6 2477.25 290.65 2477.25 346.9C2477.25 350.05 2476.8 357.25 2476.35 360.4C2475.9 365.8 2470.95 369.85 2466.45 369.85H2333.25C2333.7 395.5 2354.85 418 2385 418C2405.7 418 2420.1 410.35 2429.55 402.7C2434.5 398.65 2439.9 398.2 2443.05 402.7L2460.6 426.1C2464.2 430.15 2464.65 435.1 2459.7 439.6C2441.7 454.9 2416.05 467.95 2382.3 467.95C2320.2 467.95 2277 418.45 2277 359.05ZM2336.4 332.95H2420.55C2419.65 312.7 2403.45 296.95 2380.5 296.95C2355.3 296.95 2339.1 312.25 2336.4 332.95ZM2519.43 453.1V262.75C2519.43 257.8 2523.03 253.3 2530.23 253.3C2549.13 253.3 2559.93 265 2562.63 280.3C2574.33 267.7 2593.68 250.6 2629.68 250.6C2695.83 250.6 2712.93 295.15 2712.93 345.55V453.1C2712.93 458.5 2707.98 463 2703.03 463H2666.58C2661.18 463 2656.68 458.5 2656.68 453.1V345.55C2656.68 318.55 2645.88 301.9 2620.68 301.9C2593.68 301.9 2580.63 319.9 2575.68 334.3V453.1C2575.68 460.75 2572.53 463 2562.63 463H2529.33C2524.38 463 2519.43 458.5 2519.43 453.1ZM2765.91 375.25V265C2765.91 259.15 2770.41 255.1 2775.81 255.1H2812.26C2817.66 255.1 2822.16 259.15 2822.16 265V375.25C2822.16 402.7 2831.61 416.65 2857.26 416.65C2880.21 416.65 2891.01 395.95 2894.16 377.95V265C2894.16 256.9 2896.86 255.1 2905.41 255.1H2940.51C2945.91 255.1 2950.41 259.15 2950.41 265V455.35C2950.41 460.3 2946.81 464.8 2939.61 464.8C2920.71 464.8 2910.36 454 2907.21 439.15C2895.96 450.4 2874.81 467.95 2844.21 467.95C2779.86 467.95 2765.91 427.9 2765.91 375.25ZM3069.75 467.95C3035.1 467.95 3013.5 457.15 3001.8 449.05C2999.1 447.25 2996.85 442.3 2999.1 437.8L3012.6 410.8C3014.85 405.85 3019.8 404.05 3024.75 407.2C3034.2 413.05 3049.05 420.7 3070.65 420.7C3086.4 420.7 3093.6 414.85 3093.6 405.85C3093.6 396.4 3081.9 387.85 3054.45 377.05C3014.4 361.75 2996.4 342.85 2996.4 311.35C2996.4 279.85 3020.25 250.6 3071.1 250.6C3101.7 250.6 3121.5 258.7 3132.75 265.9C3137.25 269.5 3139.95 274.9 3137.25 280.3L3125.55 304.15C3122.4 309.1 3117 310 3112.5 308.2C3102.6 303.7 3088.2 297.85 3071.1 297.85C3057.15 297.85 3051.3 304.6 3051.3 311.35C3051.3 320.8 3061.65 325.75 3081 333.85C3121.05 350.05 3149.85 364.45 3149.85 405.85C3149.85 438.7 3121.95 467.95 3069.75 467.95Z" fill="#6297C7"/>
<defs>
<clipPath id="clip0_163_1215">
<rect width="718" height="705" rx="352.5" fill="white"/>
</clipPath>
</defs>
</svg>
